<svg xmlns="http://www.w3.org/2000/svg" xmlns:xlink="http://www.w3.org/1999/xlink" viewBox="0 0 439.22 66.73"><defs><style>.cls-1{fill:#080042;}.cls-2{fill:url(#Dégradé_sans_nom_32);}.cls-3,.cls-5,.cls-6{opacity:0.48;}.cls-3{fill:url(#Dégradé_sans_nom_70);}.cls-4{fill:url(#Dégradé_sans_nom_32-2);}.cls-5{fill:url(#Dégradé_sans_nom_70-2);}.cls-6{fill:url(#Dégradé_sans_nom_84);}.cls-7{fill:url(#Dégradé_sans_nom_36);}</style><linearGradient id="Dégradé_sans_nom_32" x1="17.51" y1="14.98" x2="71.28" y2="52.64" gradientUnits="userSpaceOnUse"><stop offset="0" stop-color="#002196"/><stop offset="0" stop-color="#01209d"/><stop offset="0.04" stop-color="#081cc6"/><stop offset="0.07" stop-color="#0e19e4"/><stop offset="0.09" stop-color="#1118f6"/><stop offset="0.11" stop-color="#1217fd"/><stop offset="1" stop-color="#2abaff"/></linearGradient><linearGradient id="Dégradé_sans_nom_70" x1="16.31" y1="27.71" x2="77.64" y2="27.71" gradientUnits="userSpaceOnUse"><stop offset="0" stop-color="#fff" stop-opacity="0"/><stop offset="0.15" stop-color="#fff" stop-opacity="0.02"/><stop offset="0.34" stop-color="#fff" stop-opacity="0.08"/><stop offset="0.54" stop-color="#fff" stop-opacity="0.18"/><stop offset="0.76" stop-color="#fff" stop-opacity="0.32"/><stop offset="0.99" stop-color="#fff" stop-opacity="0.49"/><stop offset="1" stop-color="#fff" stop-opacity="0.5"/></linearGradient><linearGradient id="Dégradé_sans_nom_32-2" x1="55.93" y1="56.8" x2="9.35" y2="10.22" xlink:href="#Dégradé_sans_nom_32"/><linearGradient id="Dégradé_sans_nom_70-2" x1="-5126.27" y1="2051.65" x2="-5064.95" y2="2051.65" gradientTransform="translate(-5064.95 2090.68) rotate(180)" xlink:href="#Dégradé_sans_nom_70"/><linearGradient id="Dégradé_sans_nom_84" x1="-4827.14" y1="2736" x2="-4814.25" y2="2736" gradientTransform="translate(-4788.78 2799.71) rotate(180)" gradientUnits="userSpaceOnUse"><stop offset="0" stop-color="#fff" stop-opacity="0"/><stop offset="1" stop-color="#fff" stop-opacity="0.3"/></linearGradient><linearGradient id="Dégradé_sans_nom_36" x1="2.77" y1="63.68" x2="83.97" y2="63.68" gradientUnits="userSpaceOnUse"><stop offset="0" stop-color="#002196"/><stop offset="0.01" stop-color="#01209d"/><stop offset="0.07" stop-color="#081cc6"/><stop offset="0.12" stop-color="#0e19e4"/><stop offset="0.17" stop-color="#1118f6"/><stop offset="0.2" stop-color="#1217fd"/><stop offset="0.3" stop-color="#1423fd"/><stop offset="0.48" stop-color="#1843fe"/><stop offset="0.72" stop-color="#2077fe"/><stop offset="1" stop-color="#2abaff"/></linearGradient></defs><g id="Calque_2" data-name="Calque 2"><g id="Calque_1-2" data-name="Calque 1"><path class="cls-1" d="M132.9,14.41a3.23,3.23,0,0,1,1.83,2.46,3.77,3.77,0,0,1-.87,3.06,2.76,2.76,0,0,1-2,1.2,4.62,4.62,0,0,1-2.48-.48,15.52,15.52,0,0,0-3-1,15,15,0,0,0-3.33-.36,15.49,15.49,0,0,0-5.79,1,12,12,0,0,0-4.34,2.91,12.46,12.46,0,0,0-2.74,4.47,16.71,16.71,0,0,0-.93,5.7,17.51,17.51,0,0,0,1,6.36,12.42,12.42,0,0,0,2.91,4.5,11.79,11.79,0,0,0,4.38,2.67,16.62,16.62,0,0,0,5.46.87,17.76,17.76,0,0,0,3.24-.3,11.18,11.18,0,0,0,3.13-1.08,4.22,4.22,0,0,1,2.48-.42,3.14,3.14,0,0,1,2.07,1.26,3.62,3.62,0,0,1,.87,3.09A3.16,3.16,0,0,1,133,52.63a21.1,21.1,0,0,1-3.21,1.29,24.35,24.35,0,0,1-3.33.78A21.52,21.52,0,0,1,123,55a24.2,24.2,0,0,1-8.19-1.38,20.84,20.84,0,0,1-6.9-4.08,18.86,18.86,0,0,1-4.77-6.75,23.62,23.62,0,0,1-1.73-9.39A22.35,22.35,0,0,1,103,24.85a19.79,19.79,0,0,1,4.5-6.75,20.69,20.69,0,0,1,6.88-4.44A22.89,22.89,0,0,1,123,12.07a22.14,22.14,0,0,1,5.16.6A21.22,21.22,0,0,1,132.9,14.41Z"/><path class="cls-1" d="M156.53,21.79l-13,30.48A3.69,3.69,0,0,1,142.28,54a3.15,3.15,0,0,1-1.88.63,3,3,0,0,1-2.41-.9,3.27,3.27,0,0,1-.78-2.22,4,4,0,0,1,.19-1.14l14.93-35.88a3.93,3.93,0,0,1,1.48-1.86,3.12,3.12,0,0,1,2.13-.54,3.51,3.51,0,0,1,2,.63,3.55,3.55,0,0,1,1.35,1.77l14.77,35.16a4.27,4.27,0,0,1,.3,1.44,3.36,3.36,0,0,1-1.05,2.58,3.39,3.39,0,0,1-2.32,1,3.17,3.17,0,0,1-2-.66,4.29,4.29,0,0,1-1.35-1.8l-12.9-30.06ZM145.44,45l3.29-6.9h16.21l1.13,6.9Z"/><path class="cls-1" d="M211.32,12.37a3,3,0,0,1,2.33,1,3.37,3.37,0,0,1,.9,2.4v35a3.59,3.59,0,0,1-3.65,3.66,5,5,0,0,1-1.6-.27,2.75,2.75,0,0,1-1.23-.75L184.49,23.41l1.56-1V51a3.31,3.31,0,0,1-.93,2.4,3.23,3.23,0,0,1-2.43,1,3,3,0,0,1-2.33-1,3.34,3.34,0,0,1-.91-2.4V16a3.59,3.59,0,0,1,3.66-3.66,5.14,5.14,0,0,1,1.75.33,2.54,2.54,0,0,1,1.31,1L209,42.85l-1,.72V15.73a3.42,3.42,0,0,1,.9-2.4A3.14,3.14,0,0,1,211.32,12.37Z"/><path class="cls-1" d="M241.55,12.37A17.47,17.47,0,0,1,249.23,14a16,16,0,0,1,5.67,4.53,20.25,20.25,0,0,1,3.48,6.72,27.55,27.55,0,0,1,1.17,8.13A26,26,0,0,1,257.45,44a17.9,17.9,0,0,1-6.09,7.59,16.57,16.57,0,0,1-9.81,2.82H227.21a3.59,3.59,0,0,1-3.66-3.66V16a3.59,3.59,0,0,1,3.66-3.66Zm-.6,35.1a9.49,9.49,0,0,0,6.18-1.95,11.18,11.18,0,0,0,3.51-5.16,21.26,21.26,0,0,0,1.11-7,22.32,22.32,0,0,0-.63-5.37,13.89,13.89,0,0,0-2-4.5A9.42,9.42,0,0,0,241,19.27h-10.5l.6-.54v29.4l-.36-.66Z"/><path class="cls-1" d="M291.65,12.19a3.69,3.69,0,0,1,3.6,3.72A4.35,4.35,0,0,1,295.1,17a3.69,3.69,0,0,1-.51,1.11L281,37.63l1.08-4.14V50.71A3.54,3.54,0,0,1,281,53.32a3.34,3.34,0,0,1-2.43,1,3.47,3.47,0,0,1-2.55-1,3.54,3.54,0,0,1-1-2.61V34l.48,1.92-13-17.22a5.2,5.2,0,0,1-.84-1.5,4.2,4.2,0,0,1-.24-1.32,3.24,3.24,0,0,1,1.26-2.64,4.07,4.07,0,0,1,2.58-1,3.63,3.63,0,0,1,2.94,1.68l11.52,15.9L278,29.53,288.65,14A3.63,3.63,0,0,1,291.65,12.19Z"/><path class="cls-1" d="M335.69,12.37a16.85,16.85,0,0,1,7.74,1.68,15.42,15.42,0,0,1,5.49,4.65,20.5,20.5,0,0,1,3.24,6.75,29.46,29.46,0,0,1,1,7.92,28.35,28.35,0,0,1-1.89,10.53,17,17,0,0,1-5.76,7.62,16.21,16.21,0,0,1-9.87,2.85h-15.3a1.7,1.7,0,0,1-1.29-.54,1.78,1.78,0,0,1-.51-1.26V14.17a1.78,1.78,0,0,1,.51-1.26,1.7,1.7,0,0,1,1.29-.54Zm-.6,38.46a12.58,12.58,0,0,0,12.81-8.67,25.25,25.25,0,0,0,1.47-8.79,26.64,26.64,0,0,0-.81-6.6A16.89,16.89,0,0,0,346,21.16a12.15,12.15,0,0,0-4.44-3.84,14,14,0,0,0-6.51-1.41H322l.42-.48v36l-.36-.6Z"/><path class="cls-1" d="M399.17,33.37A24.57,24.57,0,0,1,397.7,42a20.49,20.49,0,0,1-4.17,6.84,18.72,18.72,0,0,1-6.39,4.5,21.35,21.35,0,0,1-16.17,0,18.8,18.8,0,0,1-6.36-4.5,20.89,20.89,0,0,1-4.2-6.84,24.13,24.13,0,0,1-1.5-8.67,24.13,24.13,0,0,1,1.5-8.67,20.89,20.89,0,0,1,4.2-6.84,18.8,18.8,0,0,1,6.36-4.5,21.35,21.35,0,0,1,16.17,0,18.72,18.72,0,0,1,6.39,4.5,20.49,20.49,0,0,1,4.17,6.84A24.57,24.57,0,0,1,399.17,33.37Zm-3.84,0a20.12,20.12,0,0,0-2.1-9.39,16,16,0,0,0-5.73-6.33,15.51,15.51,0,0,0-8.43-2.28A15.42,15.42,0,0,0,364.88,24a20.36,20.36,0,0,0-2.07,9.39,20.36,20.36,0,0,0,2.07,9.39,16.22,16.22,0,0,0,22.62,6.33,16,16,0,0,0,5.73-6.33A20.12,20.12,0,0,0,395.33,33.37Z"/><path class="cls-1" d="M438.35,15.49a1.79,1.79,0,0,1,.84,1.23,1.89,1.89,0,0,1-.42,1.47,1.33,1.33,0,0,1-1,.63,2.78,2.78,0,0,1-1.29-.27,18.82,18.82,0,0,0-4.86-2.34,18.29,18.29,0,0,0-5.58-.84,17.44,17.44,0,0,0-6.81,1.32,16.48,16.48,0,0,0-5.49,3.72,16.85,16.85,0,0,0-3.63,5.7,19.78,19.78,0,0,0-1.29,7.26,20,20,0,0,0,1.32,7.41,16.92,16.92,0,0,0,3.69,5.73,16.12,16.12,0,0,0,5.49,3.66A17.78,17.78,0,0,0,426,51.43a18,18,0,0,0,5.55-.84,21.39,21.39,0,0,0,4.89-2.28,1.89,1.89,0,0,1,1.26-.27,1.74,1.74,0,0,1,1.14.69,1.88,1.88,0,0,1,.36,1.44,1.48,1.48,0,0,1-.78,1.14,24.18,24.18,0,0,1-3.54,1.83,23.13,23.13,0,0,1-4.32,1.35A22.08,22.08,0,0,1,426,55a21.25,21.25,0,0,1-8.13-1.56,20.6,20.6,0,0,1-11.31-11.22,22.37,22.37,0,0,1-1.68-8.82,21.8,21.8,0,0,1,1.65-8.58A21.47,21.47,0,0,1,411.05,18a20.65,20.65,0,0,1,6.72-4.53A20.93,20.93,0,0,1,426,11.83a22.71,22.71,0,0,1,6.6,1A21.17,21.17,0,0,1,438.35,15.49Z"/><path class="cls-2" d="M45.05,0h-.51A33.3,33.3,0,0,0,12.05,33.28h0a23,23,0,0,1,14.13-21.2V40.37A5.1,5.1,0,0,0,31,45.52a5,5,0,0,0,5.22-5V10.3h6.94A23,23,0,0,1,65.35,36.83,33.3,33.3,0,0,1,33.07,66.41l-.65.14c.37,0,.73,0,1.1,0H43.91c18.53,0,33.94-15.15,33.72-33.68A33.28,33.28,0,0,0,45.05,0Z"/><path class="cls-3" d="M45.05,0h-.51A33.31,33.31,0,0,0,16.31,17,33.19,33.19,0,0,1,40.38,5.83h.51A33.29,33.29,0,0,1,69.21,55.41,33.28,33.28,0,0,0,45.05,0Z"/><path class="cls-4" d="M65.62,33.29a23,23,0,0,1-14.11,21.2V30a5,5,0,0,0-10,0V56.27h-7A23,23,0,0,1,12.35,29.75,33.29,33.29,0,0,1,44.64.17L45.28,0l-1.1,0H33.36a33.29,33.29,0,0,0-.71,66.57h.51A33.28,33.28,0,0,0,65.65,33.29Z"/><path class="cls-5" d="M32.58,66.73h.52a33.27,33.27,0,0,0,28.22-17A33.22,33.22,0,0,1,37.26,60.91h-.52A33.3,33.3,0,0,1,8.42,11.32,33.29,33.29,0,0,0,32.58,66.73Z"/><path class="cls-6" d="M25.47,63.71h0Z"/><path class="cls-7" d="M56.89,63.7c.29,0,.58,0,.87,0h-.11C57.4,63.68,57.14,63.7,56.89,63.7Z"/></g></g></svg>