<svg xmlns="http://www.w3.org/2000/svg" xmlns:xlink="http://www.w3.org/1999/xlink" viewBox="0 0 337.82 291.85"><defs><style>.cls-1{fill:none;stroke:#c18aa4;stroke-miterlimit:10;}.cls-2{fill:#080042;}.cls-3{fill:url(#Dégradé_sans_nom_32);}.cls-4,.cls-6{opacity:0.48;}.cls-4{fill:url(#Dégradé_sans_nom_70);}.cls-5{fill:url(#Dégradé_sans_nom_32-2);}.cls-6{fill:url(#Dégradé_sans_nom_70-2);}.cls-7{fill:url(#Dégradé_sans_nom_36);}</style><linearGradient id="Dégradé_sans_nom_32" x1="104.91" y1="45.01" x2="266.43" y2="158.11" gradientUnits="userSpaceOnUse"><stop offset="0" stop-color="#002196"/><stop offset="0" stop-color="#01209d"/><stop offset="0.04" stop-color="#081cc6"/><stop offset="0.07" stop-color="#0e19e4"/><stop offset="0.09" stop-color="#1118f6"/><stop offset="0.11" stop-color="#1217fd"/><stop offset="1" stop-color="#2abaff"/></linearGradient><linearGradient id="Dégradé_sans_nom_70" x1="101.31" y1="83.23" x2="285.51" y2="83.23" gradientUnits="userSpaceOnUse"><stop offset="0" stop-color="#fff" stop-opacity="0"/><stop offset="0.15" stop-color="#fff" stop-opacity="0.02"/><stop offset="0.34" stop-color="#fff" stop-opacity="0.08"/><stop offset="0.54" stop-color="#fff" stop-opacity="0.18"/><stop offset="0.76" stop-color="#fff" stop-opacity="0.32"/><stop offset="0.99" stop-color="#fff" stop-opacity="0.49"/><stop offset="1" stop-color="#fff" stop-opacity="0.5"/></linearGradient><linearGradient id="Dégradé_sans_nom_32-2" x1="220.31" y1="170.63" x2="80.38" y2="30.7" xlink:href="#Dégradé_sans_nom_32"/><linearGradient id="Dégradé_sans_nom_70-2" x1="-4231.27" y1="1938.87" x2="-4047.07" y2="1938.87" gradientTransform="translate(-3994.76 2056.1) rotate(180)" xlink:href="#Dégradé_sans_nom_70"/><linearGradient id="Dégradé_sans_nom_36" x1="60.64" y1="191.29" x2="304.53" y2="191.29" gradientUnits="userSpaceOnUse"><stop offset="0" stop-color="#002196"/><stop offset="0.01" stop-color="#01209d"/><stop offset="0.07" stop-color="#081cc6"/><stop offset="0.12" stop-color="#0e19e4"/><stop offset="0.17" stop-color="#1118f6"/><stop offset="0.2" stop-color="#1217fd"/><stop offset="0.3" stop-color="#1423fd"/><stop offset="0.48" stop-color="#1843fe"/><stop offset="0.72" stop-color="#2077fe"/><stop offset="1" stop-color="#2abaff"/></linearGradient></defs><g id="Calque_2" data-name="Calque 2"><g id="Calque_1-2" data-name="Calque 1"><path class="cls-1" d="M200.4,227.75v0l-.43,0h.43"/><path class="cls-2" d="M31.5,251.29a3.19,3.19,0,0,1,1.83,2.46,3.7,3.7,0,0,1-.87,3.06,2.73,2.73,0,0,1-2,1.2,4.67,4.67,0,0,1-2.49-.48,15.43,15.43,0,0,0-3-1,15,15,0,0,0-3.33-.36,15.49,15.49,0,0,0-5.79,1,12.15,12.15,0,0,0-4.35,2.91,12.58,12.58,0,0,0-2.73,4.47,16.71,16.71,0,0,0-.93,5.7,17.51,17.51,0,0,0,1,6.36,12.42,12.42,0,0,0,2.91,4.5,11.71,11.71,0,0,0,4.38,2.67,16.62,16.62,0,0,0,5.46.87,17.76,17.76,0,0,0,3.24-.3A11.12,11.12,0,0,0,28,283.27a4.26,4.26,0,0,1,2.49-.42,3.14,3.14,0,0,1,2.07,1.26,3.62,3.62,0,0,1,.87,3.09,3.16,3.16,0,0,1-1.83,2.31,21.1,21.1,0,0,1-3.21,1.29,24.35,24.35,0,0,1-3.33.78,21.52,21.52,0,0,1-3.42.27,24.2,24.2,0,0,1-8.19-1.38,20.74,20.74,0,0,1-6.9-4.08,18.86,18.86,0,0,1-4.77-6.75A23.62,23.62,0,0,1,0,270.25a22.36,22.36,0,0,1,1.59-8.52A19.79,19.79,0,0,1,6.09,255,20.75,20.75,0,0,1,13,250.54,23,23,0,0,1,21.6,249a22.2,22.2,0,0,1,5.16.6A21,21,0,0,1,31.5,251.29Z"/><path class="cls-2" d="M55.14,258.67l-13,30.48a3.69,3.69,0,0,1-1.29,1.77,3.16,3.16,0,0,1-1.89.63,3,3,0,0,1-2.4-.9,3.27,3.27,0,0,1-.78-2.22,4,4,0,0,1,.18-1.14l14.94-35.88a3.91,3.91,0,0,1,1.47-1.86,3.14,3.14,0,0,1,2.13-.54,3.51,3.51,0,0,1,2,.63,3.55,3.55,0,0,1,1.35,1.77l14.76,35.16A4,4,0,0,1,73,288a3.43,3.43,0,0,1-3.36,3.54,3.15,3.15,0,0,1-1.95-.66,4.29,4.29,0,0,1-1.35-1.8L53.4,259ZM44,281.83l3.3-6.9h16.2l1.14,6.9Z"/><path class="cls-2" d="M109.92,249.25a3.06,3.06,0,0,1,2.34,1,3.37,3.37,0,0,1,.9,2.4v35a3.59,3.59,0,0,1-3.66,3.66,5,5,0,0,1-1.59-.27,2.75,2.75,0,0,1-1.23-.75L83.1,260.29l1.56-1v28.56a3.31,3.31,0,0,1-.93,2.4,3.23,3.23,0,0,1-2.43,1,3.06,3.06,0,0,1-2.34-1,3.37,3.37,0,0,1-.9-2.4v-35a3.59,3.59,0,0,1,3.66-3.66,5,5,0,0,1,1.74.33,2.53,2.53,0,0,1,1.32,1l22.86,29.16-1,.72V252.61a3.37,3.37,0,0,1,.9-2.4A3.13,3.13,0,0,1,109.92,249.25Z"/><path class="cls-2" d="M140.16,249.25a17.47,17.47,0,0,1,7.68,1.62,16,16,0,0,1,5.67,4.53,20.25,20.25,0,0,1,3.48,6.72,27.55,27.55,0,0,1,1.17,8.13,26,26,0,0,1-2.1,10.59,17.9,17.9,0,0,1-6.09,7.59,16.57,16.57,0,0,1-9.81,2.82H125.82a3.59,3.59,0,0,1-3.66-3.66V252.91a3.59,3.59,0,0,1,3.66-3.66Zm-.6,35.1a9.49,9.49,0,0,0,6.18-2,11.18,11.18,0,0,0,3.51-5.16,21.26,21.26,0,0,0,1.11-7,22.32,22.32,0,0,0-.63-5.37,13.89,13.89,0,0,0-1.95-4.5,9.42,9.42,0,0,0-8.22-4.23h-10.5l.6-.54V285l-.36-.66Z"/><path class="cls-2" d="M190.26,249.07a3.69,3.69,0,0,1,3.6,3.72,4.35,4.35,0,0,1-.15,1.11,3.69,3.69,0,0,1-.51,1.11l-13.62,19.5,1.08-4.14v17.22a3.54,3.54,0,0,1-1,2.61,3.34,3.34,0,0,1-2.43,1.05,3.47,3.47,0,0,1-2.55-1.05,3.54,3.54,0,0,1-1-2.61V270.85l.48,1.92-13-17.22a5.2,5.2,0,0,1-.84-1.5,4.2,4.2,0,0,1-.24-1.32,3.24,3.24,0,0,1,1.26-2.64,4.07,4.07,0,0,1,2.58-1,3.63,3.63,0,0,1,2.94,1.68l11.52,15.9-1.68-.24,10.62-15.54A3.63,3.63,0,0,1,190.26,249.07Z"/><path class="cls-2" d="M234.3,249.25a16.85,16.85,0,0,1,7.74,1.68,15.42,15.42,0,0,1,5.49,4.65,20.5,20.5,0,0,1,3.24,6.75,29.46,29.46,0,0,1,1,7.92,28.35,28.35,0,0,1-1.89,10.53,17,17,0,0,1-5.76,7.62,16.21,16.21,0,0,1-9.87,2.85H219a1.7,1.7,0,0,1-1.29-.54,1.78,1.78,0,0,1-.51-1.26v-38.4a1.78,1.78,0,0,1,.51-1.26,1.7,1.7,0,0,1,1.29-.54Zm-.6,38.46A12.58,12.58,0,0,0,246.51,279a25.25,25.25,0,0,0,1.47-8.79,26.64,26.64,0,0,0-.81-6.6,16.89,16.89,0,0,0-2.52-5.61,12.15,12.15,0,0,0-4.44-3.84,14,14,0,0,0-6.51-1.41H220.56l.42-.48v36l-.36-.6Z"/><path class="cls-2" d="M297.78,270.25a24.57,24.57,0,0,1-1.47,8.67,20.49,20.49,0,0,1-4.17,6.84,18.72,18.72,0,0,1-6.39,4.5,21.35,21.35,0,0,1-16.17,0,18.8,18.8,0,0,1-6.36-4.5,20.89,20.89,0,0,1-4.2-6.84,25.81,25.81,0,0,1,0-17.34,20.89,20.89,0,0,1,4.2-6.84,18.8,18.8,0,0,1,6.36-4.5,21.35,21.35,0,0,1,16.17,0,18.72,18.72,0,0,1,6.39,4.5,20.49,20.49,0,0,1,4.17,6.84A24.57,24.57,0,0,1,297.78,270.25Zm-3.84,0a20.12,20.12,0,0,0-2.1-9.39,16,16,0,0,0-5.73-6.33,15.51,15.51,0,0,0-8.43-2.28,15.42,15.42,0,0,0-14.19,8.61,22.33,22.33,0,0,0,0,18.78A16.22,16.22,0,0,0,286.11,286a16,16,0,0,0,5.73-6.33A20.12,20.12,0,0,0,293.94,270.25Z"/><path class="cls-2" d="M337,252.37a1.79,1.79,0,0,1,.84,1.23,1.89,1.89,0,0,1-.42,1.47,1.33,1.33,0,0,1-1.05.63,2.78,2.78,0,0,1-1.29-.27,18.82,18.82,0,0,0-4.86-2.34,18.29,18.29,0,0,0-5.58-.84,17.44,17.44,0,0,0-6.81,1.32,16.48,16.48,0,0,0-5.49,3.72,16.85,16.85,0,0,0-3.63,5.7,21.27,21.27,0,0,0,0,14.67,16.92,16.92,0,0,0,3.69,5.73,16.12,16.12,0,0,0,5.49,3.66,17.78,17.78,0,0,0,6.72,1.26,18,18,0,0,0,5.55-.84,21.39,21.39,0,0,0,4.89-2.28,1.89,1.89,0,0,1,1.26-.27,1.74,1.74,0,0,1,1.14.69,1.88,1.88,0,0,1,.36,1.44,1.48,1.48,0,0,1-.78,1.14,24.18,24.18,0,0,1-3.54,1.83,23.13,23.13,0,0,1-4.32,1.35,22.08,22.08,0,0,1-4.56.48,21.25,21.25,0,0,1-8.13-1.56,20.6,20.6,0,0,1-11.31-11.22,22.37,22.37,0,0,1-1.68-8.82,21.8,21.8,0,0,1,1.65-8.58,21.47,21.47,0,0,1,4.53-6.81,20.65,20.65,0,0,1,6.72-4.53,20.93,20.93,0,0,1,8.22-1.62,22.71,22.71,0,0,1,6.6,1A21.17,21.17,0,0,1,337,252.37Z"/><path class="cls-3" d="M187.64,0H186.1A100,100,0,0,0,88.51,100h.09A69,69,0,0,1,131,36.28v85c0,8.11,6.22,15.1,14.32,15.46a15,15,0,0,0,15.68-15V31h19.71l1.51,0h-.38a69.07,69.07,0,0,1,66.73,79.66,100,100,0,0,1-97,88.85l-1.94.44c1.1,0,2.21.06,3.32.06h31.2c55.65,0,101.94-45.54,101.29-101.18A100,100,0,0,0,187.64,0Z"/><path class="cls-4" d="M187.64,0H186.1a100,100,0,0,0-84.79,51A99.76,99.76,0,0,1,173.6,17.51h1.54a100,100,0,0,1,85.07,149A100,100,0,0,0,187.64,0Z"/><path class="cls-5" d="M249.42,100A69,69,0,0,1,207,163.68V90.23a15,15,0,1,0-30,0V169H156.15A69.07,69.07,0,0,1,89.42,89.35,100,100,0,0,1,186.39.5l1.94-.44C187.23,0,186.12,0,185,0h-32.5a100,100,0,0,0-2.13,200h1.54a100,100,0,0,0,97.59-100Z"/><path class="cls-6" d="M150.18,200.45h1.54a100,100,0,0,0,84.79-51A99.73,99.73,0,0,1,164.22,183h-1.54A100,100,0,0,1,77.61,34a100,100,0,0,0,72.57,166.45Z"/><path class="cls-7" d="M223.19,191.35c.88,0,1.74-.07,2.61-.12h-.32C224.72,191.28,224,191.33,223.19,191.35Z"/></g></g></svg>