<?xml version="1.0" encoding="UTF-8"?>
<svg id="Calque_1" data-name="Calque 1" xmlns="http://www.w3.org/2000/svg" xmlns:xlink="http://www.w3.org/1999/xlink" viewBox="0 0 234 200.45">
  <defs>
    <style>
      .cls-1 {
        fill: url(#Dégradé_sans_nom);
      }

      .cls-2 {
        fill: url(#Dégradé_sans_nom_3);
      }

      .cls-3 {
        fill: url(#Dégradé_sans_nom_5);
      }

      .cls-4 {
        fill: url(#Dégradé_sans_nom_2);
      }

      .cls-4, .cls-5 {
        isolation: isolate;
        opacity: .48;
      }

      .cls-5 {
        fill: url(#Dégradé_sans_nom_4);
      }
    </style>
    <linearGradient id="Dégradé_sans_nom" data-name="Dégradé sans nom" x1="53.45" y1="248.95" x2="214.94" y2="135.87" gradientTransform="translate(0 294) scale(1 -1)" gradientUnits="userSpaceOnUse">
      <stop offset="0" stop-color="#002196"/>
      <stop offset="0" stop-color="#01209d"/>
      <stop offset=".04" stop-color="#081cc6"/>
      <stop offset=".07" stop-color="#0e19e4"/>
      <stop offset=".09" stop-color="#1118f6"/>
      <stop offset=".11" stop-color="#1217fd"/>
      <stop offset="1" stop-color="#2abaff"/>
    </linearGradient>
    <linearGradient id="Dégradé_sans_nom_2" data-name="Dégradé sans nom 2" x1="49.88" y1="210.75" x2="234.12" y2="210.75" gradientTransform="translate(0 294) scale(1 -1)" gradientUnits="userSpaceOnUse">
      <stop offset="0" stop-color="#fff" stop-opacity="0"/>
      <stop offset=".15" stop-color="#fff" stop-opacity=".02"/>
      <stop offset=".34" stop-color="#fff" stop-opacity=".08"/>
      <stop offset=".54" stop-color="#fff" stop-opacity=".18"/>
      <stop offset=".76" stop-color="#fff" stop-opacity=".32"/>
      <stop offset=".99" stop-color="#fff" stop-opacity=".49"/>
      <stop offset="1" stop-color="#fff" stop-opacity=".5"/>
    </linearGradient>
    <linearGradient id="Dégradé_sans_nom_3" data-name="Dégradé sans nom 3" x1="168.61" y1="123.09" x2="28.68" y2="263.02" gradientTransform="translate(0 294) scale(1 -1)" gradientUnits="userSpaceOnUse">
      <stop offset="0" stop-color="#002196"/>
      <stop offset="0" stop-color="#01209d"/>
      <stop offset=".04" stop-color="#081cc6"/>
      <stop offset=".07" stop-color="#0e19e4"/>
      <stop offset=".09" stop-color="#1118f6"/>
      <stop offset=".11" stop-color="#1217fd"/>
      <stop offset="1" stop-color="#2abaff"/>
    </linearGradient>
    <linearGradient id="Dégradé_sans_nom_4" data-name="Dégradé sans nom 4" x1="-5862.7" y1="-858.88" x2="-5678.51" y2="-858.88" gradientTransform="translate(-5677.63 976.1) rotate(-180) scale(1 -1)" gradientUnits="userSpaceOnUse">
      <stop offset="0" stop-color="#fff" stop-opacity="0"/>
      <stop offset=".15" stop-color="#fff" stop-opacity=".02"/>
      <stop offset=".34" stop-color="#fff" stop-opacity=".08"/>
      <stop offset=".54" stop-color="#fff" stop-opacity=".18"/>
      <stop offset=".76" stop-color="#fff" stop-opacity=".32"/>
      <stop offset=".99" stop-color="#fff" stop-opacity=".49"/>
      <stop offset="1" stop-color="#fff" stop-opacity=".5"/>
    </linearGradient>
    <linearGradient id="Dégradé_sans_nom_5" data-name="Dégradé sans nom 5" x1="9.2" y1="102.71" x2="253.09" y2="102.71" gradientTransform="translate(0 294) scale(1 -1)" gradientUnits="userSpaceOnUse">
      <stop offset="0" stop-color="#002196"/>
      <stop offset="0" stop-color="#01209d"/>
      <stop offset=".07" stop-color="#081cc6"/>
      <stop offset=".12" stop-color="#0e19e4"/>
      <stop offset=".17" stop-color="#1118f6"/>
      <stop offset=".2" stop-color="#1217fd"/>
      <stop offset=".3" stop-color="#1423fd"/>
      <stop offset=".48" stop-color="#1843fe"/>
      <stop offset=".72" stop-color="#2077fe"/>
      <stop offset="1" stop-color="#2abaff"/>
    </linearGradient>
  </defs>
  <path class="cls-1" d="m136.2,0h-1.54C80.38,1.31,37.06,45.7,37.08,100h.09c-.02-27.85,16.7-52.98,42.4-63.72v85c0,8.11,6.22,15.1,14.32,15.46,8.28.38,15.29-6.03,15.66-14.3.01-.23.02-.46.02-.7V31h21.22-.38c38.14.84,68.37,32.44,67.53,70.57-.07,3.04-.34,6.08-.8,9.09-5.56,49.71-47,87.66-97,88.85l-1.94.44c1.1,0,2.21.06,3.32.06h31.2c55.65,0,101.94-45.54,101.29-101.18C233.39,44.9,190.12,1.18,136.2,0Z"/>
  <path class="cls-4" d="m136.2,0h-1.54c-35.28.85-67.51,20.23-84.79,51,18.4-20.72,44.59-32.85,72.29-33.49h1.54c55.22,1.15,99.04,46.85,97.89,102.07-.34,16.46-4.75,32.58-12.82,46.93,36.74-41.23,33.11-104.44-8.12-141.19C182.87,9.48,160.02.5,136.2,0Z"/>
  <path class="cls-2" d="m197.98,100c0,27.84-16.73,52.96-42.42,63.68v-73.45c0-8.28-6.72-15-15-15s-15,6.72-15,15v78.77h-20.85c-38.14-.84-68.37-32.44-67.53-70.58.07-3.04.33-6.07.8-9.07C43.55,39.65,84.96,1.71,134.95.5l1.94-.44c-1.1-.06-2.21-.06-3.33-.06h-32.5C45.84-.59.59,43.71,0,98.93c-.59,55.23,43.71,100.48,98.93,101.07h1.54c54.29-1.31,97.61-45.7,97.59-100h-.08Z"/>
  <path class="cls-5" d="m98.74,200.45h1.54c35.28-.85,67.51-20.23,84.79-51-18.39,20.74-44.58,32.9-72.29,33.55h-1.54c-55.22-1.15-99.04-46.85-97.89-102.07.34-16.46,4.75-32.58,12.82-46.93C-10.54,75.26-6.85,138.47,34.41,175.18c17.76,15.8,40.57,24.76,64.33,25.27Z"/>
  <path class="cls-3" d="m171.76,191.35c.88,0,1.74-.07,2.61-.12h-.32c-.76.05-1.48.1-2.29.12Z"/>
</svg>